<svg width="54" height="62" viewBox="0 0 54 62" fill="none" xmlns="http://www.w3.org/2000/svg">
<path d="M26.7075 18.0105C26.7075 15.3232 25.7696 12.7459 24.1 10.8457C22.4305 8.9455 20.1661 7.87797 17.805 7.87797H4.45125V45.875H20.0306C21.8015 45.875 23.4998 46.6756 24.7519 48.1008C26.0041 49.526 26.7075 51.4589 26.7075 53.4744M26.7075 18.0105V53.4744M26.7075 18.0105C26.7075 15.3232 27.6455 12.7459 29.315 10.8457C30.9846 8.9455 33.2489 7.87797 35.61 7.87797H48.9638V45.875H33.3844C31.6136 45.875 29.9153 46.6756 28.6631 48.1008C27.411 49.526 26.7075 51.4589 26.7075 53.4744" stroke="#F3F3F3" stroke-width="4" stroke-linecap="round" stroke-linejoin="round"/>
</svg>
