<svg width="59" height="67" viewBox="0 0 59 67" fill="none" xmlns="http://www.w3.org/2000/svg">
<path d="M48.1833 58.0286L32.6958 40.7036C31.4667 41.8036 30.0531 42.6744 28.4552 43.3161C26.8573 43.9577 25.1569 44.2786 23.3542 44.2786C18.8882 44.2786 15.1085 42.5484 12.0151 39.0879C8.9217 35.6275 7.375 31.3994 7.375 26.4036C7.375 21.4077 8.9217 17.1796 12.0151 13.7192C15.1085 10.2588 18.8882 8.52857 23.3542 8.52857C27.8201 8.52857 31.5998 10.2588 34.6932 13.7192C37.7866 17.1796 39.3333 21.4077 39.3333 26.4036C39.3333 28.4202 39.0465 30.3223 38.4729 32.1098C37.8993 33.8973 37.1208 35.4786 36.1375 36.8536L51.625 54.1786L48.1833 58.0286ZM23.3542 38.7786C26.4271 38.7786 29.0391 37.5754 31.1901 35.1692C33.3411 32.7629 34.4167 29.8411 34.4167 26.4036C34.4167 22.9661 33.3411 20.0442 31.1901 17.6379C29.0391 15.2317 26.4271 14.0286 23.3542 14.0286C20.2812 14.0286 17.6693 15.2317 15.5182 17.6379C13.3672 20.0442 12.2917 22.9661 12.2917 26.4036C12.2917 29.8411 13.3672 32.7629 15.5182 35.1692C17.6693 37.5754 20.2812 38.7786 23.3542 38.7786Z" fill="white"/>
</svg>
